<svg xmlns="http://www.w3.org/2000/svg" viewBox="0 0 318.6 318.6">
  <polygon points="274.1,35.5 174.6,109.4 193,65.8" fill="#E2761B" stroke="#E2761B"/>
  <polygon points="44.4,35.5 143.1,110.1 125.6,65.8" fill="#E4761B" stroke="#E4761B"/>
  <polygon points="238,206.8 211.8,247.4 268.5,263 284.8,207.7" fill="#E4761B" stroke="#E4761B"/>
  <polygon points="33.9,207.7 50.1,263 106.8,247.4 80.6,206.8" fill="#E4761B" stroke="#E4761B"/>
  <polygon points="103.6,138.2 87.8,162.1 144.1,164.6 142.1,104.1" fill="#E4761B" stroke="#E4761B"/>
  <polygon points="214.9,138.2 175.9,103.4 174.6,164.6 230.8,162.1" fill="#E4761B" stroke="#E4761B"/>
  <polygon points="106.8,247.4 140.6,230.9 111.4,208.1" fill="#E4761B" stroke="#E4761B"/>
  <polygon points="177.9,230.9 211.8,247.4 207.1,208.1" fill="#E4761B" stroke="#E4761B"/>
  <circle cx="159.3" cy="159.3" r="120" fill="#E4761B" opacity="0.15"/>
  <text x="159.3" y="185" font-size="120" font-weight="bold" text-anchor="middle" fill="#E4761B" font-family="Arial">M</text>
</svg>
